<svg width="47" height="47" viewBox="0 0 47 47" fill="none" xmlns="http://www.w3.org/2000/svg">
<path d="M18.0551 18.8857H26.0601C27.1952 18.8857 28.1154 19.8058 28.1154 20.9408V28.9449C28.1154 30.0799 27.1952 31 26.0601 31H18.0551C16.92 31 15.9998 30.0799 15.9998 28.9449V20.9408C15.9998 19.8058 16.92 18.8857 18.0551 18.8857Z" stroke="#6B6767" stroke-linejoin="round"/>
<path d="M18.9026 18.8844L18.8845 18.019C18.8861 17.484 19.0993 16.9714 19.4777 16.593C19.856 16.2147 20.3687 16.0015 20.9038 16H28.6924C29.3039 16.0018 29.8899 16.2455 30.3223 16.6778C30.7547 17.1102 30.9984 17.6961 31.0002 18.3075V26.0952C30.9987 26.6303 30.7854 27.1429 30.4071 27.5212C30.0287 27.8996 29.516 28.1128 28.9809 28.1143H28.1155" stroke="#6B6767" stroke-linecap="round" stroke-linejoin="round"/>
</svg>
