<svg width="17" height="17" viewBox="0 0 17 17" fill="none" xmlns="http://www.w3.org/2000/svg">
<path d="M3.05492 4.3374H11.0599C12.195 4.3374 13.1152 5.2575 13.1152 6.3925V14.3966C13.1152 15.5316 12.195 16.4517 11.0599 16.4517H3.05492C1.91979 16.4517 0.999591 15.5316 0.999591 14.3966V6.3925C0.999591 5.2575 1.91979 4.3374 3.05492 4.3374Z" stroke="#6B6767" stroke-linejoin="round"/>
<path d="M3.90239 4.33601L3.88436 3.47071C3.88588 2.93569 4.09911 2.42302 4.47747 2.04471C4.85583 1.66639 5.36855 1.45318 5.90363 1.45166H13.6923C14.3038 1.45347 14.8897 1.69716 15.3221 2.1295C15.7545 2.56185 15.9982 3.14772 16 3.75914V11.5469C15.9985 12.0819 15.7852 12.5946 15.4069 12.9729C15.0285 13.3512 14.5158 13.5644 13.9807 13.5659H13.1153" stroke="#6B6767" stroke-linecap="round" stroke-linejoin="round"/>
</svg>
