<svg width="28" height="28" viewBox="0 0 28 28" fill="none" xmlns="http://www.w3.org/2000/svg">
<rect width="28" height="28" rx="14" transform="matrix(1 0 0 -1 0 28)" fill="#F8F7F7"/>
<path d="M13.8029 7.58244C13.5199 7.6067 13.2005 7.69968 12.9377 7.83411C12.5749 8.02009 12.2322 8.33948 12.02 8.69021C11.8097 9.03891 11.6854 9.46949 11.6854 9.85256C11.6854 9.99507 11.6996 10.0608 11.7531 10.172C11.9391 10.5591 12.4536 10.646 12.7598 10.3418C12.8841 10.2184 12.9337 10.1002 12.9498 9.8849C12.962 9.71813 12.9731 9.65547 13.0095 9.54934C13.1399 9.16526 13.4926 8.88831 13.8999 8.84991C14.2274 8.81857 14.5327 8.93279 14.7591 9.1693C15.0128 9.43512 15.1078 9.80202 15.0168 10.1568C14.9359 10.4701 14.6954 10.745 14.3942 10.8673C14.2901 10.9088 14.1819 10.931 14.0354 10.9411C13.8049 10.9563 13.6836 11.0038 13.5553 11.1332C13.5007 11.1877 13.4684 11.2302 13.4411 11.2848C13.3663 11.4354 13.3693 11.398 13.3653 12.2207L13.3622 12.9596L10.232 14.3625C8.51068 15.1337 7.05622 15.7876 7.00063 15.8139C6.88642 15.8685 6.76311 15.9645 6.6216 16.1121C6.3487 16.3951 6.16879 16.7064 6.07075 17.0622C6.00606 17.2967 6 17.3654 6 17.8445C6 18.3236 6.00606 18.3923 6.07075 18.6288C6.33658 19.5981 7.29678 20.3127 8.4662 20.4118C8.63702 20.4259 19.3792 20.4259 19.5389 20.4118C20.2423 20.3481 20.866 20.0762 21.3198 19.6355C21.3865 19.5708 21.4704 19.4829 21.5047 19.4404C21.7059 19.2009 21.8686 18.8825 21.9434 18.5874C21.998 18.368 22 18.3458 22 17.8445C22 17.3431 21.998 17.3209 21.9434 17.1016C21.8737 16.8267 21.7382 16.5507 21.5583 16.3162C21.4057 16.1191 21.1631 15.8917 21.0368 15.8301C20.9994 15.8109 19.5439 15.1569 17.8034 14.3766L14.6368 12.9575V12.5381V12.1176L14.6843 12.1055C14.7712 12.0812 14.9642 12.0024 15.0805 11.9407C15.7385 11.5961 16.1842 10.9634 16.2954 10.2184C16.3176 10.0678 16.3227 9.77878 16.3045 9.63222C16.2408 9.1036 16.0144 8.6326 15.6425 8.25862C15.2038 7.81693 14.6004 7.5693 13.9808 7.57738C13.905 7.5784 13.8251 7.58042 13.8029 7.58244ZM17.2414 15.5147L20.3929 16.9267L20.4526 16.9843C20.5375 17.0662 20.6062 17.1592 20.6567 17.2633C20.7325 17.421 20.7366 17.4462 20.7356 17.8495C20.7356 18.181 20.7335 18.2083 20.7133 18.2831C20.6133 18.645 20.2686 18.9452 19.7966 19.0826C19.7461 19.0968 19.651 19.119 19.5843 19.1311L19.463 19.1534L14.091 19.1564C10.515 19.1584 8.67644 19.1564 8.59154 19.1493C8.35098 19.1291 8.13266 19.0735 7.93961 18.9826C7.60303 18.8229 7.35843 18.5581 7.28869 18.2761C7.26848 18.1922 7.26747 18.1709 7.2705 17.8162C7.27454 17.4028 7.27454 17.4068 7.35136 17.2532C7.39583 17.1632 7.47467 17.0561 7.55047 16.9813C7.59798 16.9338 7.72533 16.8762 10.7586 15.5157L13.9171 14.0997L14.004 14.1007L14.09 14.1017L17.2414 15.5147Z" fill="#F2CBC0"/>
</svg>
