<svg width="28" height="28" viewBox="0 0 28 28" fill="none" xmlns="http://www.w3.org/2000/svg">
<rect width="28" height="28" rx="14" fill="#F8F7F7"/>
<path d="M7.60114 22.0003C7.35823 21.9992 7.12569 21.9018 6.9545 21.7294C6.7833 21.5571 6.68743 21.3239 6.68791 21.081C6.69004 20.9887 6.70445 20.897 6.73077 20.8085L7.38864 18.4288C7.41614 18.341 7.38507 18.2524 7.34471 18.1824L7.33685 18.1681C7.33399 18.1635 7.32042 18.1445 7.31078 18.1306C7.30114 18.1167 7.29006 18.1017 7.28006 18.087L7.27328 18.0774C6.4426 16.8184 5.99988 15.3432 6.00004 13.8348C5.99361 11.778 6.79827 9.83472 8.26651 8.36041C9.78583 6.83823 11.818 6 13.9938 6C15.8395 5.99909 17.6305 6.62691 19.0717 7.78004C20.4807 8.91399 21.46 10.4944 21.8293 12.233C21.943 12.7611 22.0002 13.2999 22 13.8402C22 15.9448 21.1914 17.9217 19.7228 19.4071C18.2414 20.9071 16.252 21.7307 14.1216 21.7307C13.3716 21.7307 12.412 21.5392 11.9512 21.4092C11.3969 21.2542 10.8716 21.0521 10.8137 21.0307C10.7525 21.0072 10.6875 20.9951 10.6219 20.9949C10.5508 20.9945 10.4803 21.0085 10.4148 21.036L10.3844 21.0478L7.97436 21.9185C7.85599 21.9684 7.7295 21.9961 7.60114 22.0003Z" fill="#ADD3EB"/>
</svg>
