<svg width="28" height="28" viewBox="0 0 28 28" fill="none" xmlns="http://www.w3.org/2000/svg">
<rect width="28" height="28" rx="14" fill="#F8F7F7"/>
<path d="M21.6429 8.25674L17.3333 6.7481C17.3148 6.74166 17.2952 6.73936 17.2758 6.74135C17.2563 6.74335 17.2376 6.74959 17.2208 6.75964C17.204 6.76969 17.1897 6.7833 17.1788 6.79951C17.1679 6.81571 17.1606 6.83412 17.1576 6.85343C17.0329 7.60044 16.6473 8.27902 16.0694 8.76848C15.4915 9.25794 14.7587 9.52655 14.0013 9.52655C13.244 9.52655 12.5112 9.25794 11.9333 8.76848C11.3553 8.27902 10.9697 7.60044 10.845 6.85343C10.8421 6.8338 10.8349 6.81507 10.8238 6.79861C10.8127 6.78215 10.7981 6.76837 10.781 6.75828C10.7639 6.74818 10.7448 6.74203 10.725 6.74027C10.7052 6.73851 10.6853 6.74119 10.6667 6.7481L6.35711 8.25674C6.23649 8.29897 6.13504 8.38311 6.07123 8.49384C6.00742 8.60457 5.9855 8.73453 6.00945 8.86007L6.56378 11.7934C6.58511 11.9052 6.64165 12.0072 6.72514 12.0846C6.80862 12.1619 6.91467 12.2106 7.02777 12.2234L8.65708 12.4074C8.72359 12.4148 8.78485 12.4471 8.82869 12.4977C8.87253 12.5482 8.89575 12.6134 8.89374 12.6803L8.64941 20.7102C8.64617 20.8137 8.67313 20.9159 8.72699 21.0043C8.78086 21.0928 8.8593 21.1636 8.95274 21.2082C9.03042 21.2433 9.11484 21.261 9.20007 21.2599H18.7999C18.8852 21.261 18.9696 21.2433 19.0473 21.2082C19.1407 21.1636 19.2191 21.0928 19.273 21.0043C19.3269 20.9159 19.3538 20.8137 19.3506 20.7102L19.1063 12.6803C19.1042 12.6134 19.1275 12.5482 19.1713 12.4977C19.2152 12.4471 19.2764 12.4148 19.3429 12.4074L20.9722 12.2234C21.0853 12.2106 21.1914 12.1619 21.2749 12.0846C21.3583 12.0072 21.4149 11.9052 21.4362 11.7934L21.9906 8.86007C22.0145 8.73453 21.9926 8.60457 21.9288 8.49384C21.865 8.38311 21.7635 8.29897 21.6429 8.25674Z" fill="#9EB87A"/>
</svg>
