<svg width="28" height="28" viewBox="0 0 28 28" fill="none" xmlns="http://www.w3.org/2000/svg">
<g clip-path="url(#clip0_557_3745)">
<path d="M27.4909 14.0002C27.4909 6.54936 21.4508 0.509277 14 0.509277C6.54918 0.509277 0.509094 6.54936 0.509094 14.0002C0.509094 21.451 6.54918 27.4911 14 27.4911C21.4508 27.4911 27.4909 21.451 27.4909 14.0002Z" stroke="#3A3636"/>
<path d="M14 6.1792C15.8275 6.1792 17.3086 7.66023 17.3086 9.48779C17.3086 11.3154 15.8275 12.7964 14 12.7964C12.1724 12.7964 10.6914 11.3154 10.6914 9.48779C10.6914 7.66023 12.1724 6.1792 14 6.1792Z" stroke="#3A3636"/>
<mask id="mask0_557_3745" style="mask-type:luminance" maskUnits="userSpaceOnUse" x="5" y="15" width="18" height="8">
<path d="M22.9091 15.8511H5.09088V22.3304H22.9091V15.8511Z" fill="white"/>
</mask>
<g mask="url(#mask0_557_3745)">
<mask id="mask1_557_3745" style="mask-type:luminance" maskUnits="userSpaceOnUse" x="5" y="15" width="18" height="12">
<path d="M5.09088 20.942C5.09088 18.1304 7.37016 15.8511 10.1818 15.8511H17.8182C20.6297 15.8511 22.9091 18.1304 22.9091 20.942V21.4511C22.9091 24.2627 20.6297 26.542 17.8182 26.542H10.1818C7.37016 26.542 5.09088 24.2627 5.09088 21.4511V20.942Z" fill="white"/>
</mask>
<g mask="url(#mask1_557_3745)">
<path d="M4.07269 20.6876C4.07269 17.4542 6.69386 14.833 9.92724 14.833H18.0727C21.3061 14.833 23.9272 17.4542 23.9272 20.6876L21.8909 20.9421C21.8909 18.6928 20.0674 16.8694 17.8181 16.8694H10.1818C7.93248 16.8694 6.10906 18.6928 6.10906 20.9421L4.07269 20.6876ZM9.92724 26.5421C6.69386 26.5421 4.07269 23.9209 4.07269 20.6876C4.07269 17.4542 6.69386 14.833 9.92724 14.833L10.1818 16.8694C7.93248 16.8694 6.10906 18.6928 6.10906 20.9421V21.4512C6.10906 24.2628 7.93248 26.5421 10.1818 26.5421H9.92724ZM18.0727 14.833C21.3061 14.833 23.9272 17.4542 23.9272 20.6876C23.9272 23.9209 21.3061 26.5421 18.0727 26.5421H17.8181C20.0674 26.5421 21.8909 24.2628 21.8909 21.4512V20.9421C21.8909 18.6928 20.0674 16.8694 17.8181 16.8694L18.0727 14.833Z" fill="#3A3636"/>
</g>
</g>
</g>
<defs>
<clipPath id="clip0_557_3745">
<rect width="28" height="28" fill="white"/>
</clipPath>
</defs>
</svg>
