<svg width="28" height="28" viewBox="0 0 28 28" fill="none" xmlns="http://www.w3.org/2000/svg">
<path d="M14 4.32764C16.179 4.32764 17.945 6.09358 17.945 8.27259C17.945 10.4516 16.179 12.2176 14 12.2176C11.821 12.2176 10.0551 10.4516 10.0551 8.27259C10.0551 6.09358 11.821 4.32764 14 4.32764Z" stroke="#3A3636"/>
<mask id="mask0_678_2210" style="mask-type:luminance" maskUnits="userSpaceOnUse" x="1" y="15" width="26" height="10">
<path d="M26.7272 15.2729H1.27271V24.182H26.7272V15.2729Z" fill="white"/>
</mask>
<g mask="url(#mask0_678_2210)">
<mask id="mask1_678_2210" style="mask-type:luminance" maskUnits="userSpaceOnUse" x="3" y="15" width="22" height="13">
<path d="M3.81818 20.3639C3.81818 17.5523 6.09745 15.2729 8.90909 15.2729H19.0909C21.9025 15.2729 24.1818 17.5523 24.1818 20.3639V22.9093C24.1818 25.7209 21.9025 28.0002 19.0909 28.0002H8.90909C6.09745 28.0002 3.81818 25.7209 3.81818 22.9093V20.3639Z" fill="white"/>
</mask>
<g mask="url(#mask1_678_2210)">
<path d="M2.79999 20.364C2.79999 16.99 5.53512 14.2549 8.90908 14.2549H19.0909C22.4649 14.2549 25.2 16.99 25.2 20.364H23.1636C23.1636 18.1147 21.3402 16.2912 19.0909 16.2912H8.90908C6.65978 16.2912 4.83635 18.1147 4.83635 20.364H2.79999ZM8.90908 28.0003C5.53512 28.0003 2.79999 25.2652 2.79999 21.8912V20.364C2.79999 16.99 5.53512 14.2549 8.90908 14.2549V16.2912C6.65978 16.2912 4.83635 18.1147 4.83635 20.364V22.9094C4.83635 25.721 6.65978 28.0003 8.90908 28.0003ZM19.0909 14.2549C22.4649 14.2549 25.2 16.99 25.2 20.364V21.8912C25.2 25.2652 22.4649 28.0003 19.0909 28.0003C21.3402 28.0003 23.1636 25.721 23.1636 22.9094V20.364C23.1636 18.1147 21.3402 16.2912 19.0909 16.2912V14.2549Z" fill="#3A3636"/>
</g>
</g>
<path d="M22.9091 8.90918V14.0001M25.4546 11.4546H20.3636" stroke="#3A3636" stroke-linecap="round" stroke-linejoin="round"/>
</svg>
