<svg width="28" height="28" viewBox="0 0 28 28" fill="none" xmlns="http://www.w3.org/2000/svg">
<path d="M14.3194 10.7657C13.6526 10.6999 12.9817 10.8417 12.3986 11.1719C11.8156 11.5021 11.3488 12.0044 11.0622 12.6101C10.7756 13.2158 10.6833 13.8952 10.7978 14.5554C10.9123 15.2156 11.2281 15.8243 11.7019 16.2981C12.1757 16.7719 12.7844 17.0877 13.4446 17.2022C14.1048 17.3167 14.7842 17.2244 15.3899 16.9378C15.9956 16.6512 16.4979 16.1844 16.8281 15.6014C17.1582 15.0183 17.3001 14.3474 17.2342 13.6806C17.1592 12.9331 16.8279 12.2345 16.2967 11.7033C15.7655 11.172 15.0669 10.8408 14.3194 10.7657ZM22.1448 14C22.1427 14.3533 22.1168 14.706 22.0671 15.0557L24.3629 16.8564C24.4629 16.9393 24.5302 17.0549 24.553 17.1828C24.5758 17.3106 24.5525 17.4424 24.4873 17.5547L22.3154 21.3125C22.2495 21.4237 22.1464 21.5081 22.0243 21.5507C21.9022 21.5934 21.769 21.5915 21.6482 21.5456L19.3681 20.6275C19.2423 20.5774 19.1061 20.5593 18.9717 20.5748C18.8373 20.5903 18.7088 20.639 18.5977 20.7163C18.2497 20.956 17.8841 21.1688 17.5039 21.3531C17.3844 21.4112 17.281 21.4978 17.2029 21.6054C17.1248 21.7129 17.0743 21.838 17.056 21.9696L16.7142 24.4015C16.6918 24.53 16.6254 24.6466 16.5265 24.7315C16.4276 24.8165 16.3023 24.8644 16.1719 24.8672H11.8281C11.6999 24.865 11.5763 24.8191 11.4776 24.7373C11.3789 24.6554 11.3111 24.5423 11.2852 24.4168L10.944 21.9884C10.9248 21.8553 10.8731 21.729 10.7933 21.6208C10.7136 21.5125 10.6083 21.4256 10.4869 21.3679C10.1072 21.1846 9.74278 20.9711 9.39718 20.7295C9.28652 20.6525 9.15845 20.6043 9.0245 20.5891C8.89055 20.574 8.75493 20.5924 8.62987 20.6427L6.3503 21.5603C6.2295 21.6063 6.09634 21.6082 5.97427 21.5657C5.85221 21.5231 5.74907 21.4389 5.68304 21.3277L3.51112 17.5699C3.44582 17.4577 3.42249 17.3258 3.44527 17.198C3.46806 17.0701 3.53548 16.9545 3.63554 16.8717L5.57589 15.3482C5.68219 15.2639 5.76574 15.1543 5.81895 15.0294C5.87215 14.9045 5.89334 14.7684 5.88058 14.6332C5.86229 14.4215 5.85112 14.2102 5.85112 13.9985C5.85112 13.7867 5.86179 13.5785 5.88058 13.3713C5.89194 13.237 5.86972 13.102 5.81591 12.9784C5.7621 12.8549 5.6784 12.7466 5.57233 12.6634L3.633 11.14C3.53456 11.0568 3.46856 10.9415 3.44656 10.8145C3.42455 10.6875 3.44795 10.5568 3.51265 10.4453L5.68456 6.6875C5.75052 6.57628 5.85362 6.49192 5.97569 6.44928C6.09776 6.40664 6.23096 6.40846 6.35183 6.45441L8.6319 7.37254C8.75764 7.4226 8.89383 7.44069 9.02828 7.42518C9.16272 7.40967 9.29122 7.36105 9.40226 7.28367C9.75023 7.04405 10.1159 6.83117 10.4961 6.64687C10.6156 6.58878 10.719 6.50215 10.7971 6.39463C10.8752 6.28712 10.9257 6.16202 10.944 6.03039L11.2857 3.59848C11.3082 3.47004 11.3745 3.35339 11.4735 3.26845C11.5724 3.18352 11.6977 3.13557 11.8281 3.13281H16.1719C16.3001 3.13503 16.4237 3.18085 16.5224 3.26273C16.6211 3.3446 16.6889 3.45765 16.7148 3.58324L17.056 6.0116C17.0752 6.14468 17.1269 6.27097 17.2067 6.37923C17.2864 6.48749 17.3916 6.57437 17.513 6.63215C17.8928 6.81545 18.2572 7.0289 18.6028 7.27047C18.7135 7.34746 18.8415 7.39571 18.9755 7.41087C19.1094 7.42603 19.245 7.40762 19.3701 7.3573L21.6497 6.43969C21.7705 6.39369 21.9036 6.39179 22.0257 6.43434C22.1478 6.47688 22.2509 6.56114 22.3169 6.67227L24.4889 10.4301C24.5542 10.5423 24.5775 10.6742 24.5547 10.802C24.5319 10.9299 24.4645 11.0455 24.3644 11.1283L22.4241 12.6518C22.3173 12.7359 22.2333 12.8453 22.1796 12.9702C22.126 13.0951 22.1044 13.2314 22.1169 13.3668C22.1336 13.577 22.1448 13.7882 22.1448 14Z" stroke="white" stroke-linecap="round" stroke-linejoin="round"/>
</svg>
