<svg width="28" height="28" viewBox="0 0 28 28" fill="none" xmlns="http://www.w3.org/2000/svg">
<path d="M16.75 18.685V21.0275C16.75 21.6488 16.5086 22.2447 16.0788 22.684C15.649 23.1233 15.0661 23.3701 14.4583 23.3701H5.29167C4.68388 23.3701 4.10098 23.1233 3.67121 22.684C3.24144 22.2447 3 21.6488 3 21.0275V6.97199C3 6.35069 3.24144 5.75485 3.67121 5.31552C4.10098 4.8762 4.68388 4.62939 5.29167 4.62939H14C15.2656 4.62939 16.75 5.67829 16.75 6.97199V9.31458M20.4167 18.685L25 13.9998L20.4167 9.31458M9.41667 13.9998H24.0833" stroke="white" stroke-linecap="round" stroke-linejoin="round"/>
</svg>
