<svg width="86" height="16" viewBox="0 0 86 16" fill="none" xmlns="http://www.w3.org/2000/svg">
<mask id="path-1-inside-1_681_3964" fill="white">
<path d="M12.3113 12.662V0.296043H13.4993V15.578H12.3113V13.742H8.51333V12.662H12.3113ZM15.0833 15.83V0.170044H16.2713V15.83H15.0833ZM5.14733 15.524V10.61H0.611328V9.51204H10.8713V10.61H6.33533V15.524H5.14733ZM7.77533 1.79004L10.1513 8.43204H8.89133L6.65933 2.18604C6.56933 1.93404 6.38933 1.80804 6.13733 1.80804H4.71533L2.48333 8.43204H1.33133L3.97733 0.620043H6.13733C6.49733 0.620043 6.83933 0.728043 7.14533 0.944044C7.43333 1.16004 7.64933 1.44804 7.77533 1.79004ZM19.1299 7.85604C19.1299 6.66804 19.2379 5.60604 19.4899 4.67004C19.7059 3.77004 20.0479 3.01404 20.4799 2.36604C20.9119 1.75404 21.4159 1.28604 22.0279 0.962044C22.6039 0.638043 23.2519 0.476043 23.9359 0.476043C24.6199 0.476043 25.2679 0.638043 25.8619 0.962044C26.4739 1.28604 26.9959 1.75404 27.4279 2.36604C27.8599 3.01404 28.1839 3.77004 28.4179 4.67004C28.6159 5.46204 28.7239 6.36204 28.7599 7.33404H31.9099V0.170044H33.0979V15.83H31.9099V8.41404H28.7599C28.7239 9.38604 28.6159 10.268 28.4179 11.042C28.1839 11.942 27.8599 12.716 27.4279 13.346C26.9959 13.976 26.4739 14.444 25.8619 14.768C25.2679 15.092 24.6199 15.236 23.9359 15.236C23.2519 15.236 22.6039 15.092 22.0279 14.768C21.4159 14.444 20.9119 13.976 20.4799 13.346C20.0479 12.734 19.7059 11.96 19.4899 11.042C19.2379 10.106 19.1299 9.04404 19.1299 7.85604ZM21.3799 2.99604C20.5879 4.11204 20.2099 5.75004 20.2099 7.87404C20.2099 9.99804 20.5879 11.618 21.3799 12.734C22.0279 13.67 22.8739 14.138 23.9359 14.138C24.9979 14.138 25.8619 13.67 26.5279 12.734C27.2839 11.618 27.6799 9.99804 27.6799 7.87404C27.6799 5.75004 27.2839 4.11204 26.5279 2.99604C25.8619 2.06004 24.9979 1.57404 23.9359 1.57404C22.8739 1.57404 22.0279 2.06004 21.3799 2.99604ZM35.6151 15.254V14.174H51.0411V15.254H35.6151ZM36.7491 0.638043H49.9071V1.71804H37.9371V8.43204H49.9071V9.51204H37.1451C37.0371 9.51204 36.9291 9.47604 36.8571 9.40404C36.7851 9.33204 36.7491 9.24204 36.7491 9.13404V1.71804V0.638043ZM65.2153 15.578H64.0273V11.294H60.8233V10.196H64.0273V0.296043H65.2153V15.578ZM66.7993 15.83V0.170044H67.9873V15.83H66.7993ZM54.9733 14.174H62.1193V15.254H54.1813C54.0733 15.254 53.9653 15.218 53.8933 15.146C53.8213 15.074 53.7853 14.966 53.7853 14.858V7.19004H59.9953V1.71804H53.7853V0.620043H61.1833V8.28804H54.9733V14.174ZM69.9628 15.254V14.174H85.3888V15.254H69.9628ZM81.9688 1.17804L84.5608 10.07H83.3188L80.9068 1.82604H74.3368L71.9248 10.07H70.7908L73.5448 0.638043H81.2488C81.4108 0.638043 81.5548 0.692043 81.6988 0.782043C81.8248 0.890043 81.9148 1.01604 81.9688 1.17804Z"/>
</mask>
<path d="M12.3113 12.662V0.296043H13.4993V15.578H12.3113V13.742H8.51333V12.662H12.3113ZM15.0833 15.83V0.170044H16.2713V15.83H15.0833ZM5.14733 15.524V10.61H0.611328V9.51204H10.8713V10.61H6.33533V15.524H5.14733ZM7.77533 1.79004L10.1513 8.43204H8.89133L6.65933 2.18604C6.56933 1.93404 6.38933 1.80804 6.13733 1.80804H4.71533L2.48333 8.43204H1.33133L3.97733 0.620043H6.13733C6.49733 0.620043 6.83933 0.728043 7.14533 0.944044C7.43333 1.16004 7.64933 1.44804 7.77533 1.79004ZM19.1299 7.85604C19.1299 6.66804 19.2379 5.60604 19.4899 4.67004C19.7059 3.77004 20.0479 3.01404 20.4799 2.36604C20.9119 1.75404 21.4159 1.28604 22.0279 0.962044C22.6039 0.638043 23.2519 0.476043 23.9359 0.476043C24.6199 0.476043 25.2679 0.638043 25.8619 0.962044C26.4739 1.28604 26.9959 1.75404 27.4279 2.36604C27.8599 3.01404 28.1839 3.77004 28.4179 4.67004C28.6159 5.46204 28.7239 6.36204 28.7599 7.33404H31.9099V0.170044H33.0979V15.83H31.9099V8.41404H28.7599C28.7239 9.38604 28.6159 10.268 28.4179 11.042C28.1839 11.942 27.8599 12.716 27.4279 13.346C26.9959 13.976 26.4739 14.444 25.8619 14.768C25.2679 15.092 24.6199 15.236 23.9359 15.236C23.2519 15.236 22.6039 15.092 22.0279 14.768C21.4159 14.444 20.9119 13.976 20.4799 13.346C20.0479 12.734 19.7059 11.96 19.4899 11.042C19.2379 10.106 19.1299 9.04404 19.1299 7.85604ZM21.3799 2.99604C20.5879 4.11204 20.2099 5.75004 20.2099 7.87404C20.2099 9.99804 20.5879 11.618 21.3799 12.734C22.0279 13.67 22.8739 14.138 23.9359 14.138C24.9979 14.138 25.8619 13.67 26.5279 12.734C27.2839 11.618 27.6799 9.99804 27.6799 7.87404C27.6799 5.75004 27.2839 4.11204 26.5279 2.99604C25.8619 2.06004 24.9979 1.57404 23.9359 1.57404C22.8739 1.57404 22.0279 2.06004 21.3799 2.99604ZM35.6151 15.254V14.174H51.0411V15.254H35.6151ZM36.7491 0.638043H49.9071V1.71804H37.9371V8.43204H49.9071V9.51204H37.1451C37.0371 9.51204 36.9291 9.47604 36.8571 9.40404C36.7851 9.33204 36.7491 9.24204 36.7491 9.13404V1.71804V0.638043ZM65.2153 15.578H64.0273V11.294H60.8233V10.196H64.0273V0.296043H65.2153V15.578ZM66.7993 15.83V0.170044H67.9873V15.83H66.7993ZM54.9733 14.174H62.1193V15.254H54.1813C54.0733 15.254 53.9653 15.218 53.8933 15.146C53.8213 15.074 53.7853 14.966 53.7853 14.858V7.19004H59.9953V1.71804H53.7853V0.620043H61.1833V8.28804H54.9733V14.174ZM69.9628 15.254V14.174H85.3888V15.254H69.9628ZM81.9688 1.17804L84.5608 10.07H83.3188L80.9068 1.82604H74.3368L71.9248 10.07H70.7908L73.5448 0.638043H81.2488C81.4108 0.638043 81.5548 0.692043 81.6988 0.782043C81.8248 0.890043 81.9148 1.01604 81.9688 1.17804Z" fill="#3A3636" stroke="#3A3636" stroke-width="40" mask="url(#path-1-inside-1_681_3964)"/>
</svg>
