<svg width="22" height="22" viewBox="0 0 22 22" fill="none" xmlns="http://www.w3.org/2000/svg">
<path d="M12.3125 15.375C12.3125 15.7231 12.1742 16.0569 11.9281 16.3031C11.6819 16.5492 11.3481 16.6875 11 16.6875C10.6519 16.6875 10.3181 16.5492 10.0719 16.3031C9.82578 16.0569 9.6875 15.7231 9.6875 15.375C9.6875 15.0269 9.82578 14.6931 10.0719 14.4469C10.3181 14.2008 10.6519 14.0625 11 14.0625C11.3481 14.0625 11.6819 14.2008 11.9281 14.4469C12.1742 14.6931 12.3125 15.0269 12.3125 15.375ZM12.3125 11C12.3125 11.3481 12.1742 11.6819 11.9281 11.9281C11.6819 12.1742 11.3481 12.3125 11 12.3125C10.6519 12.3125 10.3181 12.1742 10.0719 11.9281C9.82578 11.6819 9.6875 11.3481 9.6875 11C9.6875 10.6519 9.82578 10.3181 10.0719 10.0719C10.3181 9.82578 10.6519 9.6875 11 9.6875C11.3481 9.6875 11.6819 9.82578 11.9281 10.0719C12.1742 10.3181 12.3125 10.6519 12.3125 11ZM12.3125 6.625C12.3125 6.9731 12.1742 7.30694 11.9281 7.55308C11.6819 7.79922 11.3481 7.9375 11 7.9375C10.6519 7.9375 10.3181 7.79922 10.0719 7.55308C9.82578 7.30694 9.6875 6.9731 9.6875 6.625C9.6875 6.2769 9.82578 5.94306 10.0719 5.69692C10.3181 5.45078 10.6519 5.3125 11 5.3125C11.3481 5.3125 11.6819 5.45078 11.9281 5.69692C12.1742 5.94306 12.3125 6.2769 12.3125 6.625Z" fill="#3A3636"/>
</svg>
