<svg width="22" height="19" viewBox="0 0 22 19" fill="none" xmlns="http://www.w3.org/2000/svg">
<path d="M15.4 4.4C15.4 6.83005 13.43 8.8 11 8.8C8.56992 8.8 6.59998 6.83005 6.59998 4.4C6.59998 1.96995 8.56992 0 11 0C13.43 0 15.4 1.96995 15.4 4.4Z" fill="#3A3636"/>
<g clip-path="url(#clip0_557_2896)">
<path d="M1 14.7998C1 12.5907 2.79086 10.7998 5 10.7998H17C19.2091 10.7998 21 12.5907 21 14.7998V18.7998C21 21.0089 19.2091 22.7998 17 22.7998H5C2.79086 22.7998 1 21.0089 1 18.7998V14.7998Z" fill="#3A3636"/>
</g>
<defs>
<clipPath id="clip0_557_2896">
<rect width="22" height="8" fill="white" transform="translate(0 10.7998)"/>
</clipPath>
</defs>
</svg>
