<svg width="22" height="22" viewBox="0 0 22 22" fill="none" xmlns="http://www.w3.org/2000/svg">
<path d="M11.0004 2C13.2093 2.00021 15.0004 3.79099 15.0004 6C15.0002 8.20883 13.2092 9.99979 11.0004 10C8.79136 10 7.00058 8.20896 7.00037 6C7.00037 3.79086 8.79123 2 11.0004 2Z" stroke="#6B6767" stroke-width="0.8"/>
<g clip-path="url(#clip0_557_2892)">
<mask id="path-2-inside-1_557_2892" fill="white">
<path d="M1 16.4004C1 14.1913 2.79086 12.4004 5 12.4004H17C19.2091 12.4004 21 14.1913 21 16.4004V20.4004C21 22.6095 19.2091 24.4004 17 24.4004H5C2.79086 24.4004 1 22.6095 1 20.4004V16.4004Z"/>
</mask>
<path d="M0.2 16.4004C0.2 13.7494 2.34903 11.6004 5 11.6004H17C19.651 11.6004 21.8 13.7494 21.8 16.4004H20.2C20.2 14.6331 18.7673 13.2004 17 13.2004H5C3.23269 13.2004 1.8 14.6331 1.8 16.4004H0.2ZM21 24.4004H1H21ZM5 24.4004C2.34903 24.4004 0.2 22.2514 0.2 19.6004V16.4004C0.2 13.7494 2.34903 11.6004 5 11.6004V13.2004C3.23269 13.2004 1.8 14.6331 1.8 16.4004V20.4004C1.8 22.6095 3.23269 24.4004 5 24.4004ZM17 11.6004C19.651 11.6004 21.8 13.7494 21.8 16.4004V19.6004C21.8 22.2514 19.651 24.4004 17 24.4004C18.7673 24.4004 20.2 22.6095 20.2 20.4004V16.4004C20.2 14.6331 18.7673 13.2004 17 13.2004V11.6004Z" fill="#6B6767" mask="url(#path-2-inside-1_557_2892)"/>
</g>
<defs>
<clipPath id="clip0_557_2892">
<rect width="22" height="8" fill="white" transform="translate(0 12.4004)"/>
</clipPath>
</defs>
</svg>
