<svg width="28" height="28" viewBox="0 0 28 28" fill="none" xmlns="http://www.w3.org/2000/svg">
<path d="M14 5.75C12.3683 5.75 10.7733 6.23385 9.41655 7.14037C8.05985 8.0469 7.00242 9.33537 6.378 10.8429C5.75358 12.3503 5.5902 14.0092 5.90852 15.6095C6.22686 17.2099 7.01259 18.6799 8.16638 19.8336C9.32016 20.9874 10.7902 21.7732 12.3905 22.0915C13.9908 22.4098 15.6497 22.2464 17.1571 21.622C18.6646 20.9975 19.9531 19.9401 20.8596 18.5835C21.7662 17.2268 22.25 15.6317 22.25 14C22.25 11.812 21.3808 9.71355 19.8336 8.16636C18.2865 6.61919 16.188 5.75 14 5.75Z" stroke="#3A3636" stroke-miterlimit="10"/>
<path d="M11.375 11.4822C11.375 11.4822 11.4144 10.6619 12.2923 9.95549C12.8131 9.53596 13.4375 9.41455 14 9.40612C14.5123 9.39955 14.9698 9.4844 15.2436 9.61471C15.7123 9.83783 16.6249 10.3825 16.6249 11.5408C16.6249 12.7596 15.8281 13.3131 14.9202 13.9221C14.0122 14.5309 13.7657 15.1919 13.7657 15.8749" stroke="#3A3636" stroke-miterlimit="10" stroke-linecap="round"/>
<path d="M13.7188 19.2499C14.2365 19.2499 14.6563 18.8302 14.6563 18.3124C14.6563 17.7947 14.2365 17.375 13.7188 17.375C13.201 17.375 12.7812 17.7947 12.7812 18.3124C12.7812 18.8302 13.201 19.2499 13.7188 19.2499Z" fill="#3A3636"/>
</svg>
