<svg width="28" height="28" viewBox="0 0 28 28" fill="none" xmlns="http://www.w3.org/2000/svg">
<path d="M12.5 5.75C11.1649 5.75 9.85991 6.14588 8.74989 6.88757C7.63986 7.62927 6.7747 8.68347 6.26381 9.91686C5.75292 11.1503 5.61925 12.5074 5.8797 13.8168C6.14015 15.1262 6.78302 16.3289 7.72702 17.2729C8.67102 18.2169 9.87375 18.8598 11.1831 19.1202C12.4925 19.3807 13.8497 19.247 15.0831 18.7361C16.3165 18.2252 17.3707 17.3601 18.1124 16.25C18.854 15.14 19.2499 13.835 19.2499 12.5C19.2498 10.7098 18.5386 8.99298 17.2728 7.72714C16.0069 6.46131 14.2901 5.75011 12.5 5.75Z" stroke="#A7A5A4" stroke-width="1.2" stroke-miterlimit="10"/>
<path d="M17.5234 17.5234L20.4883 20.4883" stroke="#A7A5A4" stroke-width="1.2" stroke-miterlimit="10" stroke-linecap="round"/>
</svg>
