<svg width="28" height="28" viewBox="0 0 28 28" fill="none" xmlns="http://www.w3.org/2000/svg">
<path d="M4.40171 26.0005C4.03735 25.9988 3.68853 25.8527 3.43174 25.5942C3.17495 25.3357 3.03115 24.9859 3.03186 24.6215C3.03505 24.483 3.05667 24.3456 3.09615 24.2128L4.08296 20.6432C4.12421 20.5114 4.0776 20.3786 4.01706 20.2736L4.00528 20.2522C4.00099 20.2452 3.98063 20.2168 3.96617 20.1959C3.9517 20.175 3.9351 20.1525 3.9201 20.1305L3.90992 20.1161C2.6639 18.2276 1.99982 16.0147 2.00006 13.7522C1.99041 10.667 3.1974 7.75208 5.39977 5.54061C7.67874 3.25735 10.727 2 13.9907 2C16.7593 1.99863 19.4458 2.94037 21.6076 4.67005C23.721 6.37098 25.19 8.74157 25.7439 11.3495C25.9144 12.1417 26.0003 12.9498 26 13.7602C26 16.9173 24.7871 19.8825 22.5842 22.1106C20.362 24.3606 17.378 25.596 14.1824 25.596C13.0574 25.596 11.6179 25.3089 10.9268 25.1139C10.0954 24.8814 9.30735 24.5781 9.22056 24.546C9.12871 24.5108 9.03123 24.4927 8.93287 24.4924C8.8262 24.4918 8.72051 24.5127 8.62215 24.554L8.57662 24.5717L4.96154 25.8778C4.78399 25.9525 4.59425 25.9941 4.40171 26.0005Z" fill="#ADD3EB"/>
</svg>
