<svg width="26" height="24" viewBox="0 0 26 24" fill="none" xmlns="http://www.w3.org/2000/svg">
<path d="M27.3751 2.61188L19.8332 0.0143841C19.801 0.00329939 19.7666 -0.000666966 19.7326 0.00276585C19.6986 0.00619866 19.6657 0.0169467 19.6364 0.0342491C19.6071 0.0515516 19.582 0.0749855 19.5628 0.102892C19.5437 0.130798 19.5311 0.162495 19.5258 0.195738C19.3076 1.4819 18.6328 2.65023 17.6215 3.49295C16.6101 4.33567 15.3277 4.79816 14.0023 4.79816C12.677 4.79816 11.3946 4.33567 10.3832 3.49295C9.37183 2.65023 8.69703 1.4819 8.47883 0.195738C8.47371 0.161942 8.46099 0.129695 8.4416 0.101351C8.4222 0.0730075 8.39661 0.0492813 8.36671 0.0319038C8.33681 0.0145263 8.30334 0.00393592 8.26875 0.000904963C8.23415 -0.002126 8.19931 0.00247895 8.16675 0.0143841L0.624947 2.61188C0.413857 2.68458 0.23632 2.82944 0.124656 3.02009C0.0129913 3.21074 -0.0253757 3.43451 0.016539 3.65065L0.986608 8.70101C1.02394 8.89351 1.12289 9.06921 1.26899 9.20242C1.41509 9.33562 1.60067 9.41935 1.7986 9.44135L4.64989 9.75815C4.76628 9.77106 4.87348 9.82656 4.95021 9.91364C5.02693 10.0007 5.06757 10.113 5.06405 10.2282L4.63647 24.0536C4.6308 24.2317 4.67798 24.4077 4.77224 24.56C4.8665 24.7122 5.00377 24.8342 5.1673 24.911C5.30323 24.9714 5.45097 25.0018 5.60012 24.9999H22.3999C22.549 25.0018 22.6968 24.9714 22.8327 24.911C22.9962 24.8342 23.1335 24.7122 23.2278 24.56C23.322 24.4077 23.3692 24.2317 23.3635 24.0536L22.936 10.2282C22.9324 10.113 22.9731 10.0007 23.0498 9.91364C23.1265 9.82656 23.2337 9.77106 23.3501 9.75815L26.2014 9.44135C26.3993 9.41935 26.5849 9.33562 26.731 9.20242C26.8771 9.06921 26.9761 8.89351 27.0134 8.70101L27.9835 3.65065C28.0254 3.43451 27.987 3.21074 27.8753 3.02009C27.7637 2.82944 27.5861 2.68458 27.3751 2.61188Z" fill="#9EB87A"/>
</svg>
