<svg width="28" height="28" viewBox="0 0 28 28" fill="none" xmlns="http://www.w3.org/2000/svg">
<path d="M13.6551 2.76988C13.1598 2.81233 12.6009 2.97506 12.141 3.21031C11.506 3.53577 10.9064 4.0947 10.5349 4.70848C10.167 5.31871 9.94946 6.07222 9.94946 6.74259C9.94946 6.99199 9.97423 7.10696 10.068 7.30153C10.3934 7.97898 11.2937 8.13109 11.8297 7.59868C12.0473 7.38289 12.1339 7.17594 12.1622 6.79919C12.1834 6.50734 12.2029 6.39767 12.2666 6.21195C12.4948 5.53981 13.1121 5.05516 13.8249 4.98795C14.398 4.93311 14.9322 5.13299 15.3284 5.54688C15.7723 6.01208 15.9386 6.65415 15.7794 7.275C15.6379 7.82332 15.2169 8.30443 14.6898 8.51846C14.5076 8.59098 14.3184 8.62989 14.0619 8.64758C13.6586 8.67411 13.4464 8.75724 13.2217 8.98365C13.1262 9.07916 13.0696 9.15345 13.0219 9.24897C12.891 9.51252 12.8963 9.44707 12.8892 10.8869L12.8839 12.1799L7.40594 14.6349C4.39368 15.9845 1.84839 17.1289 1.75111 17.1749C1.55123 17.2704 1.33544 17.4385 1.08781 17.6967C0.610234 18.192 0.295389 18.7368 0.123816 19.3594C0.0106128 19.7698 0 19.89 0 20.7284C0 21.5668 0.0106128 21.6871 0.123816 22.101C0.589008 23.7973 2.26936 25.0478 4.31586 25.2212C4.61478 25.2459 23.4135 25.2459 23.693 25.2212C24.9241 25.1097 26.0154 24.6339 26.8096 23.8627C26.9263 23.7495 27.0732 23.5957 27.1333 23.5214C27.4853 23.1022 27.7701 22.545 27.9009 22.0285C27.9965 21.6447 28 21.6058 28 20.7284C28 19.8511 27.9965 19.8122 27.9009 19.4284C27.7789 18.9473 27.5419 18.4644 27.227 18.054C26.9599 17.7091 26.5354 17.3111 26.3143 17.2032C26.2489 17.1696 23.7018 16.0252 20.656 14.6597L15.1143 12.1763V11.4423V10.7065L15.1975 10.6852C15.3496 10.6428 15.6874 10.5048 15.8908 10.3969C17.0423 9.79376 17.8224 8.68649 18.0169 7.38289C18.0558 7.11934 18.0647 6.61347 18.0328 6.35699C17.9214 5.43191 17.5252 4.60765 16.8743 3.9532C16.1066 3.18024 15.0507 2.74688 13.9664 2.76103C13.8337 2.7628 13.694 2.76634 13.6551 2.76988ZM19.6725 16.6514L25.1876 19.1224L25.292 19.2232C25.4406 19.3665 25.5608 19.5292 25.6493 19.7114C25.7819 19.9873 25.789 20.0315 25.7872 20.7373C25.7872 21.3174 25.7837 21.3652 25.7483 21.4961C25.5732 22.1293 24.9701 22.6547 24.144 22.8952C24.0556 22.92 23.8893 22.9589 23.7726 22.9801L23.5603 23.019L14.1592 23.0243C7.9012 23.0279 4.68377 23.0243 4.53519 23.012C4.11421 22.9766 3.73215 22.8793 3.39431 22.7201C2.80531 22.4406 2.37726 21.9772 2.25521 21.4837C2.21984 21.3369 2.21807 21.2998 2.22337 20.6789C2.23045 19.9555 2.23045 19.9626 2.36488 19.6937C2.4427 19.5363 2.58067 19.3488 2.71333 19.2179C2.79646 19.1348 3.01933 19.0339 8.32748 16.6531L13.855 14.1751L14.0071 14.1768L14.1574 14.1786L19.6725 16.6514Z" fill="#ADD3EB"/>
</svg>
