<svg width="28" height="28" viewBox="0 0 28 28" fill="none" xmlns="http://www.w3.org/2000/svg">
<path d="M8.46728 19.4463C6.00675 17.7081 4.40002 14.8417 4.40002 11.6C4.40002 6.29806 8.69809 2 14 2C19.302 2 23.6 6.29806 23.6 11.6C23.6 14.8417 21.9933 17.7081 19.5327 19.4463L22.0323 25.1595C22.1652 25.4631 22.0267 25.8169 21.7231 25.9497C21.6473 25.9828 21.5654 26 21.4826 26H6.51744C6.18607 26 5.91744 25.7313 5.91744 25.4C5.91744 25.3172 5.93456 25.2354 5.96774 25.1595L8.46728 19.4463ZM9.34224 12.7645C9.86263 14.8527 11.7506 16.4 14 16.4C16.2494 16.4 18.1374 14.8527 18.6578 12.7645L16.3289 12.1822C16.0687 13.2264 15.1247 14 14 14C12.8754 14 11.9313 13.2264 11.6712 12.1822L9.34224 12.7645Z" fill="#EFDA8F"/>
</svg>
