<svg width="26" height="26" viewBox="0 0 26 26" fill="none" xmlns="http://www.w3.org/2000/svg">
<path d="M7 5.6V1.4C7 0.626808 7.62681 0 8.4 0H19.6C20.3732 0 21 0.626808 21 1.4V5.6H28V8.4H25.2V26.6C25.2 27.3732 24.5732 28 23.8 28H4.2C3.42681 28 2.8 27.3732 2.8 26.6V8.4H0V5.6H7ZM15.9799 16.7996L18.4548 14.3248L16.4749 12.3449L14 14.8197L11.5251 12.3449L9.54523 14.3248L12.0201 16.7996L9.54523 19.2745L11.5251 21.2544L14 18.7795L16.4749 21.2544L18.4548 19.2745L15.9799 16.7996ZM9.8 2.8V5.6H18.2V2.8H9.8Z" fill="#F6B3A9"/>
</svg>
